<svg width="347" height="77" viewBox="0 0 347 77" fill="none" xmlns="http://www.w3.org/2000/svg">
<path d="M4.04545 62V15.4545H22.4091C25.9394 15.4545 28.947 16.1288 31.4318 17.4773C33.9167 18.8106 35.8106 20.6667 37.1136 23.0455C38.4318 25.4091 39.0909 28.1364 39.0909 31.2273C39.0909 34.3182 38.4242 37.0455 37.0909 39.4091C35.7576 41.7727 33.8258 43.6136 31.2955 44.9318C28.7803 46.25 25.7348 46.9091 22.1591 46.9091H10.4545V39.0227H20.5682C22.4621 39.0227 24.0227 38.697 25.25 38.0455C26.4924 37.3788 27.4167 36.4621 28.0227 35.2955C28.6439 34.1136 28.9545 32.7576 28.9545 31.2273C28.9545 29.6818 28.6439 28.3333 28.0227 27.1818C27.4167 26.0151 26.4924 25.1136 25.25 24.4773C24.0076 23.8258 22.4318 23.5 20.5227 23.5H13.8864V62H4.04545ZM45.483 62V15.4545H76.8466V23.5682H55.3239V34.6591H75.233V42.7727H55.3239V53.8864H76.9375V62H45.483ZM123.602 15.4545V62H115.102L94.8523 32.7045H94.5114V62H84.6705V15.4545H93.3068L113.398 44.7273H113.807V15.4545H123.602ZM156.983 28.8409C156.801 27.0076 156.021 25.5833 154.642 24.5682C153.263 23.553 151.392 23.0455 149.028 23.0455C147.422 23.0455 146.066 23.2727 144.96 23.7273C143.854 24.1667 143.006 24.7803 142.415 25.5682C141.839 26.3561 141.551 27.25 141.551 28.25C141.521 29.0833 141.695 29.8106 142.074 30.4318C142.468 31.053 143.006 31.5909 143.688 32.0455C144.369 32.4848 145.157 32.8712 146.051 33.2045C146.945 33.5227 147.9 33.7955 148.915 34.0227L153.097 35.0227C155.127 35.4773 156.991 36.0833 158.688 36.8409C160.384 37.5985 161.854 38.5303 163.097 39.6364C164.339 40.7424 165.301 42.0455 165.983 43.5455C166.68 45.0455 167.036 46.7652 167.051 48.7045C167.036 51.553 166.309 54.0227 164.869 56.1136C163.445 58.1894 161.384 59.803 158.688 60.9545C156.006 62.0909 152.771 62.6591 148.983 62.6591C145.225 62.6591 141.953 62.0833 139.165 60.9318C136.392 59.7803 134.225 58.0758 132.665 55.8182C131.119 53.5455 130.309 50.7348 130.233 47.3864H139.756C139.862 48.947 140.309 50.25 141.097 51.2955C141.9 52.3258 142.968 53.1061 144.301 53.6364C145.65 54.1515 147.172 54.4091 148.869 54.4091C150.536 54.4091 151.983 54.1667 153.21 53.6818C154.453 53.197 155.415 52.5227 156.097 51.6591C156.778 50.7955 157.119 49.803 157.119 48.6818C157.119 47.6364 156.809 46.7576 156.188 46.0455C155.581 45.3333 154.688 44.7273 153.506 44.2273C152.339 43.7273 150.907 43.2727 149.21 42.8636L144.142 41.5909C140.218 40.6364 137.119 39.1439 134.847 37.1136C132.574 35.0833 131.445 32.3485 131.46 28.9091C131.445 26.0909 132.195 23.6288 133.71 21.5227C135.241 19.4167 137.339 17.7727 140.006 16.5909C142.672 15.4091 145.703 14.8182 149.097 14.8182C152.551 14.8182 155.566 15.4091 158.142 16.5909C160.733 17.7727 162.748 19.4167 164.188 21.5227C165.627 23.6288 166.369 26.0682 166.415 28.8409H156.983ZM210.051 34.8864V42.5682H188.824V34.8864H210.051ZM262.045 15.4545H271.886V45.6818C271.886 49.0758 271.076 52.0455 269.455 54.5909C267.848 57.1364 265.598 59.1212 262.705 60.5455C259.811 61.9545 256.439 62.6591 252.591 62.6591C248.727 62.6591 245.348 61.9545 242.455 60.5455C239.561 59.1212 237.311 57.1364 235.705 54.5909C234.098 52.0455 233.295 49.0758 233.295 45.6818V15.4545H243.136V44.8409C243.136 46.6136 243.523 48.1894 244.295 49.5682C245.083 50.947 246.189 52.0303 247.614 52.8182C249.038 53.6061 250.697 54 252.591 54C254.5 54 256.159 53.6061 257.568 52.8182C258.992 52.0303 260.091 50.947 260.864 49.5682C261.652 48.1894 262.045 46.6136 262.045 44.8409V15.4545ZM288.006 62H277.46L293.528 15.4545H306.21L322.256 62H311.71L300.051 26.0909H299.688L288.006 62ZM287.347 43.7045H312.256V51.3864H287.347V43.7045Z" fill="#627AFF"/>
</svg>
